<?xml version="1.0" standalone="no"?>
<!DOCTYPE svg PUBLIC "-//W3C//DTD SVG 20010904//EN"
 "http://www.w3.org/TR/2001/REC-SVG-20010904/DTD/svg10.dtd">
<svg version="1.0" xmlns="http://www.w3.org/2000/svg"
 width="200.000000pt" height="200.000000pt" viewBox="0 0 200.000000 200.000000"
 preserveAspectRatio="xMidYMid meet">

<g transform="translate(0.000000,200.000000) scale(0.100000,-0.100000)"
fill="#000000" stroke="none">
<path d="M930 1511 c-130 -43 -203 -138 -204 -266 -1 -160 115 -278 274 -278
80 0 137 24 195 81 168 165 58 454 -178 468 -34 2 -73 0 -87 -5z m170 -47 c85
-36 140 -121 140 -219 0 -104 -46 -179 -135 -221 -125 -59 -279 -2 -332 123
-19 47 -16 150 6 198 55 119 196 171 321 119z"/>
<path d="M844 1367 c-2 -7 -3 -60 -2 -118 l3 -104 155 0 155 0 0 115 0 115
-153 3 c-120 2 -154 0 -158 -11z m276 -107 l0 -80 -120 0 -120 0 0 80 0 80
120 0 120 0 0 -80z"/>
<path d="M1013 1268 c-31 -31 -33 -31 -52 -14 -29 26 -34 3 -5 -25 l25 -23 47
47 c27 28 41 47 32 47 -9 0 -30 -14 -47 -32z"/>
<path d="M923 1098 c2 -9 27 -13 77 -13 50 0 75 4 78 13 3 9 -17 12 -78 12
-61 0 -81 -3 -77 -12z"/>
<path d="M202 868 c-7 -7 -12 -40 -12 -80 0 -65 1 -69 28 -79 31 -12 87 -6
108 12 17 14 19 111 4 140 -9 15 -22 19 -63 19 -29 0 -58 -5 -65 -12z m78 -73
c0 -38 -3 -45 -20 -45 -17 0 -20 7 -20 38 0 41 6 52 27 52 9 0 13 -14 13 -45z"/>
<path d="M370 795 c0 -84 0 -85 25 -85 23 0 25 4 25 41 0 37 2 40 16 28 12
-10 20 -10 35 -1 18 11 19 9 19 -28 0 -36 2 -40 25 -40 25 0 25 1 25 85 0 83
-1 85 -24 85 -15 0 -32 -11 -44 -27 l-20 -28 -13 28 c-9 20 -19 27 -41 27
l-28 0 0 -85z"/>
<path d="M570 859 c0 -12 8 -23 20 -26 16 -4 20 -14 20 -44 0 -32 -3 -39 -20
-39 -13 0 -20 -7 -20 -20 0 -18 7 -20 60 -20 53 0 60 2 60 20 0 11 -7 20 -15
20 -11 0 -15 11 -15 40 0 29 4 40 15 40 9 0 15 9 15 25 0 24 -3 25 -60 25 -54
0 -60 -2 -60 -21z"/>
<path d="M732 868 c-7 -7 -12 -27 -12 -45 0 -34 21 -53 59 -53 12 0 21 -4 21
-10 0 -5 -18 -10 -40 -10 -33 0 -40 -3 -40 -20 0 -18 7 -20 60 -20 55 0 62 2
72 25 16 36 -2 71 -41 80 -42 9 -39 25 4 25 28 0 35 4 35 20 0 17 -7 20 -53
20 -29 0 -58 -5 -65 -12z"/>
<path d="M880 795 l0 -85 30 0 c27 0 30 3 30 30 0 23 4 30 20 30 16 0 20 -7
20 -30 0 -25 4 -30 25 -30 25 0 25 1 25 85 0 84 0 85 -25 85 -21 0 -25 -5 -25
-30 0 -23 -4 -30 -20 -30 -16 0 -20 7 -20 30 0 27 -3 30 -30 30 l-30 0 0 -85z"/>
<path d="M1085 844 c-8 -20 -15 -58 -15 -85 0 -46 2 -49 25 -49 18 0 25 5 25
20 0 13 7 20 20 20 13 0 20 -7 20 -20 0 -16 7 -20 31 -20 l32 0 -5 48 c-3 26
-12 64 -21 85 -15 34 -19 37 -56 37 -37 0 -42 -3 -56 -36z m69 -30 c9 -23 8
-24 -14 -24 -11 0 -20 2 -20 4 0 12 13 36 20 36 4 0 11 -7 14 -16z"/>
<path d="M1300 814 c0 -36 5 -74 10 -85 16 -29 54 -24 67 9 l10 27 8 -27 c5
-21 14 -28 31 -28 32 0 44 27 44 104 0 64 -1 66 -25 66 -23 0 -25 -4 -25 -47
-1 -38 -3 -44 -11 -30 -5 9 -16 17 -24 17 -8 0 -19 -8 -24 -17 -8 -14 -10 -8
-11 30 0 43 -2 47 -25 47 -24 0 -25 -2 -25 -66z"/>
<path d="M1500 795 l0 -85 65 0 c58 0 65 2 65 20 0 16 -7 20 -35 20 -19 0 -35
5 -35 10 0 6 11 10 25 10 20 0 25 5 25 25 0 20 -5 25 -25 25 -14 0 -25 5 -25
10 0 6 16 10 35 10 28 0 35 4 35 20 0 18 -7 20 -65 20 l-65 0 0 -85z"/>
<path d="M1660 795 l0 -86 73 3 72 3 3 33 c2 18 -2 40 -8 48 -7 7 -10 21 -6
30 3 8 1 24 -4 35 -9 15 -22 19 -70 19 l-60 0 0 -85z m88 33 c-6 -18 -28 -21
-28 -4 0 9 7 16 16 16 9 0 14 -5 12 -12z m10 -65 c2 -8 -5 -13 -17 -13 -12 0
-21 6 -21 16 0 18 31 15 38 -3z"/>
<path d="M510 565 l0 -85 63 0 c36 0 68 5 75 12 16 16 16 130 0 146 -7 7 -39
12 -75 12 l-63 0 0 -85z m98 -3 c3 -37 1 -42 -17 -42 -18 0 -21 6 -21 46 0 38
3 45 18 42 12 -2 18 -15 20 -46z"/>
<path d="M697 643 c-4 -3 -7 -42 -7 -85 l0 -78 65 0 c58 0 65 2 65 20 0 16 -7
20 -35 20 -19 0 -35 5 -35 10 0 6 11 10 25 10 20 0 25 5 25 25 0 20 -5 25 -25
25 -14 0 -25 5 -25 10 0 6 16 10 35 10 28 0 35 4 35 20 0 18 -7 20 -58 20 -32
0 -62 -3 -65 -7z"/>
<path d="M862 638 c-7 -7 -12 -27 -12 -45 0 -34 21 -53 59 -53 12 0 21 -4 21
-10 0 -5 -18 -10 -40 -10 -34 0 -40 -3 -40 -20 0 -19 5 -21 63 -18 l62 3 0 45
c0 43 -1 45 -38 55 -44 12 -39 25 10 25 26 0 33 4 33 20 0 17 -7 20 -53 20
-29 0 -58 -5 -65 -12z"/>
<path d="M1010 630 c0 -11 7 -20 15 -20 11 0 15 -12 15 -45 0 -33 -4 -45 -15
-45 -8 0 -15 -9 -15 -20 0 -18 7 -20 60 -20 53 0 60 2 60 20 0 11 -7 20 -15
20 -11 0 -15 12 -15 45 0 33 4 45 15 45 8 0 15 9 15 20 0 18 -7 20 -60 20 -53
0 -60 -2 -60 -20z"/>
<path d="M1172 638 c-7 -7 -12 -39 -12 -73 0 -34 5 -66 12 -73 7 -7 38 -12 70
-12 l58 0 0 45 c0 41 -2 45 -25 45 -20 0 -25 -5 -25 -26 0 -41 -34 -28 -38 15
-4 38 9 51 51 51 20 0 27 5 27 20 0 17 -7 20 -53 20 -29 0 -58 -5 -65 -12z"/>
<path d="M1330 565 l0 -85 30 0 c28 0 30 2 30 41 l0 42 20 -26 c11 -14 20 -32
20 -41 0 -10 9 -16 25 -16 25 0 25 1 25 85 0 84 0 85 -25 85 -20 0 -25 -5 -25
-25 0 -14 -3 -25 -6 -25 -3 0 -15 11 -26 25 -11 14 -30 25 -44 25 -24 0 -24
-2 -24 -85z"/>
</g>
</svg>
